<mxfile host="app.diagrams.net" modified="2023-10-06T15:35:14.511Z" agent="Mozilla/5.0 (Windows NT 10.0; Win64; x64) AppleWebKit/537.36 (KHTML, like Gecko) Chrome/117.0.0.0 Safari/537.36 Edg/117.0.2045.47" etag="woK7DExxeUiWEUtXMH_K" version="22.0.0" type="google">
  <diagram name="Page-1" id="nhxabct85LZSpg05FONC">
    <mxGraphModel grid="1" page="1" gridSize="10" guides="1" tooltips="1" connect="1" arrows="1" fold="1" pageScale="1" pageWidth="850" pageHeight="1100" math="1" shadow="0">
      <root>
        <mxCell id="0" />
        <mxCell id="1" parent="0" />
        <mxCell id="bbbS7h34c8MEiVb-5PFJ-1" value="" style="ellipse;whiteSpace=wrap;html=1;aspect=fixed;" vertex="1" parent="1">
          <mxGeometry x="38.5" y="-80" width="693" height="693" as="geometry" />
        </mxCell>
        <mxCell id="bbbS7h34c8MEiVb-5PFJ-2" value="&lt;b&gt;&lt;font style=&quot;font-size: 18px;&quot;&gt;Heaters&lt;/font&gt;&lt;/b&gt;" style="text;html=1;strokeColor=none;fillColor=none;align=center;verticalAlign=middle;whiteSpace=wrap;rounded=0;" vertex="1" parent="1">
          <mxGeometry x="215" y="-28" width="60" height="30" as="geometry" />
        </mxCell>
        <mxCell id="bbbS7h34c8MEiVb-5PFJ-3" value="Heaters are susceptible to:&lt;br&gt;--&amp;gt;electrical short circuits&lt;br&gt;--&amp;gt;excessive electrical load&lt;br&gt;--&amp;gt;delamination&lt;br&gt;&lt;br&gt;" style="text;html=1;strokeColor=none;fillColor=none;align=center;verticalAlign=middle;whiteSpace=wrap;rounded=0;" vertex="1" parent="1">
          <mxGeometry x="80" y="415" width="170" height="30" as="geometry" />
        </mxCell>
        <mxCell id="bbbS7h34c8MEiVb-5PFJ-4" value="F&lt;sub&gt;Heat&lt;/sub&gt;" style="ellipse;whiteSpace=wrap;html=1;aspect=fixed;fillColor=#dae8fc;strokeColor=#6c8ebf;" vertex="1" parent="1">
          <mxGeometry x="510" y="225" width="65" height="65" as="geometry" />
        </mxCell>
        <mxCell id="bbbS7h34c8MEiVb-5PFJ-5" value="H&lt;sub&gt;heaters&lt;/sub&gt;" style="ellipse;whiteSpace=wrap;html=1;aspect=fixed;fillColor=#CCCCCC;strokeColor=#6c8ebf;" vertex="1" parent="1">
          <mxGeometry x="430" y="280" width="60" height="60" as="geometry" />
        </mxCell>
        <mxCell id="bbbS7h34c8MEiVb-5PFJ-6" value="" style="endArrow=classic;html=1;rounded=0;" edge="1" parent="1" source="bbbS7h34c8MEiVb-5PFJ-5" target="bbbS7h34c8MEiVb-5PFJ-4">
          <mxGeometry width="50" height="50" relative="1" as="geometry">
            <mxPoint x="420" y="320" as="sourcePoint" />
            <mxPoint x="470" y="270" as="targetPoint" />
          </mxGeometry>
        </mxCell>
        <mxCell id="bbbS7h34c8MEiVb-5PFJ-7" value="V&lt;span style=&quot;font-size: 10px;&quot;&gt;pannel failure&lt;/span&gt;" style="ellipse;whiteSpace=wrap;html=1;aspect=fixed;strokeColor=#f4a4c0;" vertex="1" parent="1">
          <mxGeometry x="375" y="350" width="50" height="50" as="geometry" />
        </mxCell>
        <mxCell id="bbbS7h34c8MEiVb-5PFJ-8" value="" style="endArrow=classic;html=1;rounded=0;" edge="1" parent="1" source="bbbS7h34c8MEiVb-5PFJ-7" target="bbbS7h34c8MEiVb-5PFJ-5">
          <mxGeometry width="50" height="50" relative="1" as="geometry">
            <mxPoint x="410" y="420" as="sourcePoint" />
            <mxPoint x="460" y="370" as="targetPoint" />
          </mxGeometry>
        </mxCell>
        <mxCell id="bbbS7h34c8MEiVb-5PFJ-9" value="Delamination" style="ellipse;whiteSpace=wrap;html=1;aspect=fixed;fillColor=none;strokeColor=#b85450;dashed=1;" vertex="1" parent="1">
          <mxGeometry x="360" y="420" width="50" height="50" as="geometry" />
        </mxCell>
        <mxCell id="bbbS7h34c8MEiVb-5PFJ-10" value="" style="endArrow=classic;html=1;rounded=0;" edge="1" parent="1" source="bbbS7h34c8MEiVb-5PFJ-9" target="bbbS7h34c8MEiVb-5PFJ-7">
          <mxGeometry width="50" height="50" relative="1" as="geometry">
            <mxPoint x="310" y="470" as="sourcePoint" />
            <mxPoint x="360" y="420" as="targetPoint" />
          </mxGeometry>
        </mxCell>
        <mxCell id="bbbS7h34c8MEiVb-5PFJ-11" value="V&lt;span style=&quot;font-size: 8.33333px;&quot;&gt;electric load&lt;/span&gt;" style="ellipse;whiteSpace=wrap;html=1;aspect=fixed;" vertex="1" parent="1">
          <mxGeometry x="460" y="400" width="60" height="60" as="geometry" />
        </mxCell>
        <mxCell id="bbbS7h34c8MEiVb-5PFJ-12" value="" style="endArrow=classic;html=1;rounded=0;exitX=0.383;exitY=0.033;exitDx=0;exitDy=0;exitPerimeter=0;entryX=0.723;entryY=0.969;entryDx=0;entryDy=0;entryPerimeter=0;" edge="1" parent="1" source="yPW69nwnyNr8cuQnFO7K-1" target="bbbS7h34c8MEiVb-5PFJ-4">
          <mxGeometry width="50" height="50" relative="1" as="geometry">
            <mxPoint x="400" y="500" as="sourcePoint" />
            <mxPoint x="450" y="450" as="targetPoint" />
          </mxGeometry>
        </mxCell>
        <mxCell id="bbbS7h34c8MEiVb-5PFJ-13" value="Excessive load" style="ellipse;whiteSpace=wrap;html=1;aspect=fixed;fillColor=none;strokeColor=#b85450;dashed=1;" vertex="1" parent="1">
          <mxGeometry x="410" y="480" width="60" height="60" as="geometry" />
        </mxCell>
        <mxCell id="bbbS7h34c8MEiVb-5PFJ-14" value="" style="endArrow=classic;html=1;rounded=0;" edge="1" parent="1" source="bbbS7h34c8MEiVb-5PFJ-13" target="bbbS7h34c8MEiVb-5PFJ-11">
          <mxGeometry width="50" height="50" relative="1" as="geometry">
            <mxPoint x="410" y="450" as="sourcePoint" />
            <mxPoint x="460" y="400" as="targetPoint" />
          </mxGeometry>
        </mxCell>
        <mxCell id="bbbS7h34c8MEiVb-5PFJ-15" value="Short Circuts" style="ellipse;whiteSpace=wrap;html=1;aspect=fixed;fillColor=none;strokeColor=#b85450;dashed=1;" vertex="1" parent="1">
          <mxGeometry x="510" y="470" width="60" height="60" as="geometry" />
        </mxCell>
        <mxCell id="bbbS7h34c8MEiVb-5PFJ-16" value="" style="endArrow=classic;html=1;rounded=0;" edge="1" parent="1" source="bbbS7h34c8MEiVb-5PFJ-15" target="bbbS7h34c8MEiVb-5PFJ-11">
          <mxGeometry width="50" height="50" relative="1" as="geometry">
            <mxPoint x="510" y="540" as="sourcePoint" />
            <mxPoint x="560" y="490" as="targetPoint" />
          </mxGeometry>
        </mxCell>
        <mxCell id="bbbS7h34c8MEiVb-5PFJ-17" value="Time" style="ellipse;whiteSpace=wrap;html=1;aspect=fixed;fillColor=none;strokeColor=#b85450;dashed=1;" vertex="1" parent="1">
          <mxGeometry x="300" y="380" width="50" height="50" as="geometry" />
        </mxCell>
        <mxCell id="bbbS7h34c8MEiVb-5PFJ-18" value="" style="endArrow=classic;html=1;rounded=0;" edge="1" parent="1" source="bbbS7h34c8MEiVb-5PFJ-17" target="bbbS7h34c8MEiVb-5PFJ-7">
          <mxGeometry width="50" height="50" relative="1" as="geometry">
            <mxPoint x="360" y="350" as="sourcePoint" />
            <mxPoint x="410" y="300" as="targetPoint" />
          </mxGeometry>
        </mxCell>
        <mxCell id="yPW69nwnyNr8cuQnFO7K-1" value="$$H_{power}$$&amp;nbsp;" style="ellipse;whiteSpace=wrap;html=1;aspect=fixed;fillColor=#CCCCCC;strokeColor=#6c8ebf;" vertex="1" parent="1">
          <mxGeometry x="550" y="340" width="60" height="60" as="geometry" />
        </mxCell>
        <mxCell id="yPW69nwnyNr8cuQnFO7K-2" value="" style="endArrow=classic;html=1;rounded=0;exitX=0.983;exitY=0.383;exitDx=0;exitDy=0;exitPerimeter=0;entryX=0;entryY=0.5;entryDx=0;entryDy=0;" edge="1" parent="1" source="bbbS7h34c8MEiVb-5PFJ-11" target="yPW69nwnyNr8cuQnFO7K-1">
          <mxGeometry width="50" height="50" relative="1" as="geometry">
            <mxPoint x="553" y="437" as="sourcePoint" />
            <mxPoint x="507" y="413" as="targetPoint" />
          </mxGeometry>
        </mxCell>
        <mxCell id="yPW69nwnyNr8cuQnFO7K-3" value="$$V_{software}$$" style="ellipse;whiteSpace=wrap;html=1;aspect=fixed;" vertex="1" parent="1">
          <mxGeometry x="430" y="70" width="74" height="74" as="geometry" />
        </mxCell>
        <mxCell id="yPW69nwnyNr8cuQnFO7K-4" value="Incorrect Update" style="ellipse;whiteSpace=wrap;html=1;aspect=fixed;fillColor=none;strokeColor=#b85450;dashed=1;" vertex="1" parent="1">
          <mxGeometry x="575" y="44" width="50" height="50" as="geometry" />
        </mxCell>
        <mxCell id="yPW69nwnyNr8cuQnFO7K-5" value="" style="shape=flexArrow;endArrow=classic;html=1;rounded=0;width=0.3225806451612903;endSize=1.064804469273743;endWidth=2.980717246350694;strokeColor=#F19C99;entryX=1;entryY=0.5;entryDx=0;entryDy=0;exitX=-0.015;exitY=0.709;exitDx=0;exitDy=0;exitPerimeter=0;" edge="1" parent="1" source="yPW69nwnyNr8cuQnFO7K-4" target="yPW69nwnyNr8cuQnFO7K-3">
          <mxGeometry width="50" height="50" relative="1" as="geometry">
            <mxPoint x="570" y="134" as="sourcePoint" />
            <mxPoint x="334" y="-61" as="targetPoint" />
          </mxGeometry>
        </mxCell>
        <mxCell id="yPW69nwnyNr8cuQnFO7K-6" value="$$V_{sensor_{functionality}}$$" style="ellipse;whiteSpace=wrap;html=1;aspect=fixed;" vertex="1" parent="1">
          <mxGeometry x="288" y="32" width="74" height="74" as="geometry" />
        </mxCell>
        <mxCell id="yPW69nwnyNr8cuQnFO7K-8" value="&lt;font size=&quot;1&quot;&gt;Eccentric Behavior&amp;nbsp;&lt;/font&gt;" style="ellipse;whiteSpace=wrap;html=1;aspect=fixed;fillColor=#FFFFFF;strokeColor=#F19C99;strokeWidth=2;dashed=1;dashPattern=8 8;" vertex="1" parent="1">
          <mxGeometry x="510" y="-18" width="50" height="50" as="geometry" />
        </mxCell>
        <mxCell id="yPW69nwnyNr8cuQnFO7K-9" value="" style="shape=flexArrow;endArrow=classic;html=1;rounded=0;width=0.3225806451612903;endSize=1.064804469273743;endWidth=2.980717246350694;strokeColor=#F19C99;exitX=0;exitY=1;exitDx=0;exitDy=0;" edge="1" parent="1" source="yPW69nwnyNr8cuQnFO7K-8" target="yPW69nwnyNr8cuQnFO7K-3">
          <mxGeometry width="50" height="50" relative="1" as="geometry">
            <mxPoint x="569" y="145" as="sourcePoint" />
            <mxPoint x="534" y="153" as="targetPoint" />
          </mxGeometry>
        </mxCell>
        <mxCell id="yPW69nwnyNr8cuQnFO7K-10" value="" style="endArrow=classic;html=1;rounded=0;exitX=1;exitY=0.5;exitDx=0;exitDy=0;" edge="1" parent="1" source="yPW69nwnyNr8cuQnFO7K-6" target="yPW69nwnyNr8cuQnFO7K-3">
          <mxGeometry width="50" height="50" relative="1" as="geometry">
            <mxPoint x="427" y="367" as="sourcePoint" />
            <mxPoint x="450" y="342" as="targetPoint" />
          </mxGeometry>
        </mxCell>
        <mxCell id="yPW69nwnyNr8cuQnFO7K-11" value="$$H_{power}$$&amp;nbsp;" style="ellipse;whiteSpace=wrap;html=1;aspect=fixed;fillColor=#CCCCCC;strokeColor=#6c8ebf;" vertex="1" parent="1">
          <mxGeometry x="400" y="-28" width="60" height="60" as="geometry" />
        </mxCell>
        <mxCell id="yPW69nwnyNr8cuQnFO7K-12" value="" style="endArrow=classic;html=1;rounded=0;exitX=0.733;exitY=1.033;exitDx=0;exitDy=0;exitPerimeter=0;" edge="1" parent="1" source="yPW69nwnyNr8cuQnFO7K-11" target="yPW69nwnyNr8cuQnFO7K-3">
          <mxGeometry width="50" height="50" relative="1" as="geometry">
            <mxPoint x="450" y="50" as="sourcePoint" />
            <mxPoint x="460" y="151" as="targetPoint" />
          </mxGeometry>
        </mxCell>
        <mxCell id="yPW69nwnyNr8cuQnFO7K-13" value="" style="endArrow=classic;html=1;rounded=0;exitX=0.378;exitY=0.959;exitDx=0;exitDy=0;exitPerimeter=0;entryX=0.062;entryY=0.292;entryDx=0;entryDy=0;entryPerimeter=0;" edge="1" parent="1" source="yPW69nwnyNr8cuQnFO7K-3" target="bbbS7h34c8MEiVb-5PFJ-4">
          <mxGeometry width="50" height="50" relative="1" as="geometry">
            <mxPoint x="464" y="72" as="sourcePoint" />
            <mxPoint x="483" y="119" as="targetPoint" />
          </mxGeometry>
        </mxCell>
        <mxCell id="yPW69nwnyNr8cuQnFO7K-21" value="&lt;font style=&quot;font-size: 14px;&quot;&gt;$$V_{damage}$$&lt;/font&gt;" style="ellipse;whiteSpace=wrap;html=1;aspect=fixed;fillColor=#FFFFFF;strokeColor=#080505;strokeWidth=1;" vertex="1" parent="1">
          <mxGeometry x="295" y="150" width="80" height="80" as="geometry" />
        </mxCell>
        <mxCell id="yPW69nwnyNr8cuQnFO7K-22" value="&lt;font style=&quot;font-size: 10px;&quot;&gt;Meteorite Impact&lt;/font&gt;" style="ellipse;whiteSpace=wrap;html=1;aspect=fixed;fillColor=#FFFFFF;strokeColor=#F19C99;strokeWidth=2;dashed=1;dashPattern=8 8;" vertex="1" parent="1">
          <mxGeometry x="170" y="144" width="50" height="50" as="geometry" />
        </mxCell>
        <mxCell id="yPW69nwnyNr8cuQnFO7K-23" value="&lt;font style=&quot;font-size: 14px;&quot;&gt;Aging&lt;/font&gt;" style="ellipse;whiteSpace=wrap;html=1;aspect=fixed;fillColor=#FFFFFF;strokeColor=#F19C99;strokeWidth=2;dashed=1;dashPattern=8 8;" vertex="1" parent="1">
          <mxGeometry x="160" y="200" width="50" height="50" as="geometry" />
        </mxCell>
        <mxCell id="yPW69nwnyNr8cuQnFO7K-24" value="&lt;font style=&quot;font-size: 10px;&quot;&gt;Human Action&amp;nbsp;&lt;/font&gt;" style="ellipse;whiteSpace=wrap;html=1;aspect=fixed;fillColor=#FFFFFF;strokeColor=#F19C99;strokeWidth=2;dashed=1;dashPattern=8 8;" vertex="1" parent="1">
          <mxGeometry x="220" y="300" width="50" height="50" as="geometry" />
        </mxCell>
        <mxCell id="yPW69nwnyNr8cuQnFO7K-25" value="" style="shape=flexArrow;endArrow=classic;html=1;rounded=0;width=0.3225806451612903;endSize=1.064804469273743;endWidth=2.980717246350694;strokeColor=#F19C99;" edge="1" parent="1" source="yPW69nwnyNr8cuQnFO7K-23" target="yPW69nwnyNr8cuQnFO7K-21">
          <mxGeometry width="50" height="50" relative="1" as="geometry">
            <mxPoint x="162" y="-190" as="sourcePoint" />
            <mxPoint x="110" y="-185" as="targetPoint" />
          </mxGeometry>
        </mxCell>
        <mxCell id="yPW69nwnyNr8cuQnFO7K-26" value="&lt;font style=&quot;font-size: 10px;&quot;&gt;Incorrect maintenance procedure&lt;/font&gt;" style="ellipse;whiteSpace=wrap;html=1;aspect=fixed;fillColor=#FFFFFF;strokeColor=#F19C99;strokeWidth=2;dashed=1;dashPattern=8 8;" vertex="1" parent="1">
          <mxGeometry x="220" y="225" width="50" height="50" as="geometry" />
        </mxCell>
        <mxCell id="yPW69nwnyNr8cuQnFO7K-27" value="" style="shape=flexArrow;endArrow=classic;html=1;rounded=0;width=0.3225806451612903;endSize=1.064804469273743;endWidth=2.980717246350694;strokeColor=#F19C99;" edge="1" parent="1" source="yPW69nwnyNr8cuQnFO7K-26" target="yPW69nwnyNr8cuQnFO7K-21">
          <mxGeometry width="50" height="50" relative="1" as="geometry">
            <mxPoint x="-15" y="450" as="sourcePoint" />
            <mxPoint x="-172" y="383" as="targetPoint" />
          </mxGeometry>
        </mxCell>
        <mxCell id="yPW69nwnyNr8cuQnFO7K-28" value="" style="shape=flexArrow;endArrow=classic;html=1;rounded=0;width=0.3225806451612903;endSize=1.064804469273743;endWidth=2.980717246350694;strokeColor=#F19C99;" edge="1" parent="1" source="yPW69nwnyNr8cuQnFO7K-24">
          <mxGeometry width="50" height="50" relative="1" as="geometry">
            <mxPoint x="130" y="490" as="sourcePoint" />
            <mxPoint x="281" y="289" as="targetPoint" />
          </mxGeometry>
        </mxCell>
        <mxCell id="yPW69nwnyNr8cuQnFO7K-29" value="" style="shape=flexArrow;endArrow=classic;html=1;rounded=0;width=0.3225806451612903;endSize=1.064804469273743;endWidth=2.980717246350694;strokeColor=#F19C99;entryX=1;entryY=1;entryDx=0;entryDy=0;" edge="1" parent="1" target="yPW69nwnyNr8cuQnFO7K-26">
          <mxGeometry width="50" height="50" relative="1" as="geometry">
            <mxPoint x="280" y="280" as="sourcePoint" />
            <mxPoint x="140" y="570" as="targetPoint" />
          </mxGeometry>
        </mxCell>
        <mxCell id="yPW69nwnyNr8cuQnFO7K-30" value="" style="shape=flexArrow;endArrow=classic;html=1;rounded=0;width=0.3225806451612903;endSize=1.064804469273743;endWidth=2.980717246350694;strokeColor=#F19C99;" edge="1" parent="1" source="yPW69nwnyNr8cuQnFO7K-22" target="yPW69nwnyNr8cuQnFO7K-21">
          <mxGeometry width="50" height="50" relative="1" as="geometry">
            <mxPoint x="-237" y="436" as="sourcePoint" />
            <mxPoint x="-223" y="393" as="targetPoint" />
          </mxGeometry>
        </mxCell>
        <mxCell id="yPW69nwnyNr8cuQnFO7K-31" value="&lt;font style=&quot;font-size: 10px;&quot;&gt;Robot Action&amp;nbsp;&lt;/font&gt;" style="ellipse;whiteSpace=wrap;html=1;aspect=fixed;fillColor=#FFFFFF;strokeColor=#F19C99;strokeWidth=2;dashed=1;dashPattern=8 8;" vertex="1" parent="1">
          <mxGeometry x="310" y="300" width="50" height="50" as="geometry" />
        </mxCell>
        <mxCell id="yPW69nwnyNr8cuQnFO7K-32" value="" style="shape=flexArrow;endArrow=classic;html=1;rounded=0;width=0.3225806451612903;endSize=1.064804469273743;endWidth=2.980717246350694;strokeColor=#F19C99;entryX=1;entryY=1;entryDx=0;entryDy=0;" edge="1" parent="1" source="RsrimsG_c1H8ZUnxLuD0-2">
          <mxGeometry width="50" height="50" relative="1" as="geometry">
            <mxPoint x="70" y="417.77" as="sourcePoint" />
            <mxPoint x="289" y="289" as="targetPoint" />
          </mxGeometry>
        </mxCell>
        <mxCell id="yPW69nwnyNr8cuQnFO7K-33" value="" style="endArrow=classic;html=1;rounded=0;entryX=0;entryY=0;entryDx=0;entryDy=0;" edge="1" parent="1" source="yPW69nwnyNr8cuQnFO7K-21" target="bbbS7h34c8MEiVb-5PFJ-5">
          <mxGeometry width="50" height="50" relative="1" as="geometry">
            <mxPoint x="384" y="147" as="sourcePoint" />
            <mxPoint x="460" y="151" as="targetPoint" />
          </mxGeometry>
        </mxCell>
        <mxCell id="yPW69nwnyNr8cuQnFO7K-34" value="&lt;font style=&quot;font-size: 10px;&quot;&gt;Dust&lt;/font&gt;" style="ellipse;whiteSpace=wrap;html=1;aspect=fixed;fillColor=#FFFFFF;strokeColor=#F19C99;strokeWidth=2;dashed=1;dashPattern=8 8;" vertex="1" parent="1">
          <mxGeometry x="238" y="106" width="50" height="50" as="geometry" />
        </mxCell>
        <mxCell id="RsrimsG_c1H8ZUnxLuD0-1" value="" style="endArrow=classic;html=1;rounded=0;" edge="1" parent="1" source="yPW69nwnyNr8cuQnFO7K-34" target="yPW69nwnyNr8cuQnFO7K-21">
          <mxGeometry width="50" height="50" relative="1" as="geometry">
            <mxPoint x="-10" y="250" as="sourcePoint" />
            <mxPoint x="40" y="200" as="targetPoint" />
          </mxGeometry>
        </mxCell>
        <mxCell id="RsrimsG_c1H8ZUnxLuD0-3" value="" style="shape=flexArrow;endArrow=classic;html=1;rounded=0;width=0.3225806451612903;endSize=1.064804469273743;endWidth=2.980717246350694;strokeColor=#F19C99;entryX=1;entryY=1;entryDx=0;entryDy=0;" edge="1" parent="1" source="yPW69nwnyNr8cuQnFO7K-31" target="RsrimsG_c1H8ZUnxLuD0-2">
          <mxGeometry width="50" height="50" relative="1" as="geometry">
            <mxPoint x="315" y="310" as="sourcePoint" />
            <mxPoint x="289" y="289" as="targetPoint" />
          </mxGeometry>
        </mxCell>
        <mxCell id="RsrimsG_c1H8ZUnxLuD0-2" value="" style="ellipse;whiteSpace=wrap;html=1;aspect=fixed;fillColor=#000000;strokeColor=#9673a6;" vertex="1" parent="1">
          <mxGeometry x="278" y="280" width="10" height="10" as="geometry" />
        </mxCell>
        <mxCell id="dDpY92w-f0N6FMBaNKWD-1" value="" style="ellipse;whiteSpace=wrap;html=1;strokeColor=#000000;" vertex="1" parent="1">
          <mxGeometry x="990" y="330" width="640" height="589" as="geometry" />
        </mxCell>
        <mxCell id="dDpY92w-f0N6FMBaNKWD-2" value="&lt;div&gt;&lt;font style=&quot;font-size: 14px;&quot;&gt;$$F_{heat}$$&lt;/font&gt;&lt;/div&gt;" style="ellipse;whiteSpace=wrap;html=1;aspect=fixed;fillColor=#A9C4EB;" vertex="1" parent="1">
          <mxGeometry x="1395" y="670" width="80" height="80" as="geometry" />
        </mxCell>
        <mxCell id="dDpY92w-f0N6FMBaNKWD-4" value="&lt;font style=&quot;font-size: 10px;&quot;&gt;Dust&lt;/font&gt;" style="ellipse;whiteSpace=wrap;html=1;aspect=fixed;fillColor=#FFFFFF;strokeColor=#F19C99;strokeWidth=2;dashed=1;dashPattern=8 8;" vertex="1" parent="1">
          <mxGeometry x="1090" y="670" width="50" height="50" as="geometry" />
        </mxCell>
        <mxCell id="dDpY92w-f0N6FMBaNKWD-5" value="&lt;font style=&quot;font-size: 10px;&quot;&gt;Meteorite Impact&lt;/font&gt;" style="ellipse;whiteSpace=wrap;html=1;aspect=fixed;fillColor=#FFFFFF;strokeColor=#F19C99;strokeWidth=2;dashed=1;dashPattern=8 8;" vertex="1" parent="1">
          <mxGeometry x="1020" y="576" width="50" height="50" as="geometry" />
        </mxCell>
        <mxCell id="dDpY92w-f0N6FMBaNKWD-6" value="&lt;font style=&quot;font-size: 10px;&quot;&gt;Aging&lt;/font&gt;" style="ellipse;whiteSpace=wrap;html=1;aspect=fixed;fillColor=#FFFFFF;strokeColor=#F19C99;strokeWidth=2;dashed=1;dashPattern=8 8;" vertex="1" parent="1">
          <mxGeometry x="1040" y="486" width="50" height="50" as="geometry" />
        </mxCell>
        <mxCell id="dDpY92w-f0N6FMBaNKWD-7" value="&lt;font style=&quot;font-size: 10px;&quot;&gt;Human Action&amp;nbsp;&lt;/font&gt;" style="ellipse;whiteSpace=wrap;html=1;aspect=fixed;fillColor=#FFFFFF;strokeColor=#F19C99;strokeWidth=2;dashed=1;dashPattern=8 8;" vertex="1" parent="1">
          <mxGeometry x="1230" y="396" width="50" height="50" as="geometry" />
        </mxCell>
        <mxCell id="dDpY92w-f0N6FMBaNKWD-10" value="" style="shape=flexArrow;endArrow=classic;html=1;rounded=0;width=0.3225806451612903;endSize=1.064804469273743;endWidth=2.980717246350694;strokeColor=#F19C99;" edge="1" parent="1" source="dDpY92w-f0N6FMBaNKWD-6" target="dDpY92w-f0N6FMBaNKWD-36">
          <mxGeometry width="50" height="50" relative="1" as="geometry">
            <mxPoint x="1572" y="251" as="sourcePoint" />
            <mxPoint x="1221.6339458292996" y="820.4656778001668" as="targetPoint" />
          </mxGeometry>
        </mxCell>
        <mxCell id="dDpY92w-f0N6FMBaNKWD-11" value="&lt;font style=&quot;font-size: 10px;&quot;&gt;Incorrect maintenance procedure&lt;/font&gt;" style="ellipse;whiteSpace=wrap;html=1;aspect=fixed;fillColor=#FFFFFF;strokeColor=#F19C99;strokeWidth=2;dashed=1;dashPattern=8 8;" vertex="1" parent="1">
          <mxGeometry x="1200" y="496" width="50" height="50" as="geometry" />
        </mxCell>
        <mxCell id="dDpY92w-f0N6FMBaNKWD-13" value="" style="shape=flexArrow;endArrow=classic;html=1;rounded=0;width=0.3225806451612903;endSize=1.064804469273743;endWidth=2.980717246350694;strokeColor=#F19C99;" edge="1" parent="1" source="dDpY92w-f0N6FMBaNKWD-11" target="dDpY92w-f0N6FMBaNKWD-36">
          <mxGeometry width="50" height="50" relative="1" as="geometry">
            <mxPoint x="1395" y="891" as="sourcePoint" />
            <mxPoint x="1251.199999999948" y="817.6000000001791" as="targetPoint" />
          </mxGeometry>
        </mxCell>
        <mxCell id="dDpY92w-f0N6FMBaNKWD-14" value="" style="shape=flexArrow;endArrow=classic;html=1;rounded=0;width=0.3225806451612903;endSize=1.064804469273743;endWidth=2.980717246350694;strokeColor=#F19C99;" edge="1" parent="1" source="dDpY92w-f0N6FMBaNKWD-7" target="dDpY92w-f0N6FMBaNKWD-19">
          <mxGeometry width="50" height="50" relative="1" as="geometry">
            <mxPoint x="1540" y="931" as="sourcePoint" />
            <mxPoint x="1405" y="901" as="targetPoint" />
          </mxGeometry>
        </mxCell>
        <mxCell id="dDpY92w-f0N6FMBaNKWD-15" value="" style="shape=flexArrow;endArrow=classic;html=1;rounded=0;width=0.3225806451612903;endSize=1.064804469273743;endWidth=2.980717246350694;strokeColor=#F19C99;" edge="1" parent="1" source="dDpY92w-f0N6FMBaNKWD-19" target="dDpY92w-f0N6FMBaNKWD-11">
          <mxGeometry width="50" height="50" relative="1" as="geometry">
            <mxPoint x="1530" y="996" as="sourcePoint" />
            <mxPoint x="1550" y="1011" as="targetPoint" />
          </mxGeometry>
        </mxCell>
        <mxCell id="dDpY92w-f0N6FMBaNKWD-16" value="Heaters" style="text;whiteSpace=wrap;html=1;fillColor=none;fontSize=50;" vertex="1" parent="1">
          <mxGeometry x="930" y="720" width="270" height="40" as="geometry" />
        </mxCell>
        <mxCell id="dDpY92w-f0N6FMBaNKWD-17" value="" style="shape=flexArrow;endArrow=classic;html=1;rounded=0;width=0.3225806451612903;endSize=1.064804469273743;endWidth=2.980717246350694;strokeColor=#F19C99;" edge="1" parent="1" source="dDpY92w-f0N6FMBaNKWD-5" target="dDpY92w-f0N6FMBaNKWD-36">
          <mxGeometry width="50" height="50" relative="1" as="geometry">
            <mxPoint x="1173" y="877" as="sourcePoint" />
            <mxPoint x="1203.8688998258158" y="838.8377274172622" as="targetPoint" />
          </mxGeometry>
        </mxCell>
        <mxCell id="dDpY92w-f0N6FMBaNKWD-18" value="&lt;font style=&quot;font-size: 10px;&quot;&gt;Robot Action&amp;nbsp;&lt;/font&gt;" style="ellipse;whiteSpace=wrap;html=1;aspect=fixed;fillColor=#FFFFFF;strokeColor=#F19C99;strokeWidth=2;dashed=1;dashPattern=8 8;" vertex="1" parent="1">
          <mxGeometry x="1290" y="436" width="50" height="50" as="geometry" />
        </mxCell>
        <mxCell id="dDpY92w-f0N6FMBaNKWD-19" value="" style="ellipse;whiteSpace=wrap;html=1;aspect=fixed;fillColor=#000000;strokeColor=#000000;" vertex="1" parent="1">
          <mxGeometry x="1250" y="476" width="10" height="10" as="geometry" />
        </mxCell>
        <mxCell id="dDpY92w-f0N6FMBaNKWD-20" value="" style="shape=flexArrow;endArrow=classic;html=1;rounded=0;width=0.3225806451612903;endSize=1.064804469273743;endWidth=2.980717246350694;strokeColor=#F19C99;" edge="1" parent="1" source="dDpY92w-f0N6FMBaNKWD-18" target="dDpY92w-f0N6FMBaNKWD-19">
          <mxGeometry width="50" height="50" relative="1" as="geometry">
            <mxPoint x="1480" y="858.77" as="sourcePoint" />
            <mxPoint x="1566.576385689822" y="963.2272271813727" as="targetPoint" />
          </mxGeometry>
        </mxCell>
        <mxCell id="dDpY92w-f0N6FMBaNKWD-23" value="&lt;font style=&quot;font-size: 14px;&quot;&gt;$$H_{heater}$$&lt;/font&gt;" style="ellipse;whiteSpace=wrap;html=1;aspect=fixed;fillColor=#CCCCCC;" vertex="1" parent="1">
          <mxGeometry x="1230" y="650" width="80" height="80" as="geometry" />
        </mxCell>
        <mxCell id="dDpY92w-f0N6FMBaNKWD-24" value="&lt;font style=&quot;font-size: 14px;&quot;&gt;$$H_{power}$$&lt;/font&gt;" style="ellipse;whiteSpace=wrap;html=1;aspect=fixed;fillColor=#CCCCCC;" vertex="1" parent="1">
          <mxGeometry x="1540" y="576" width="80" height="80" as="geometry" />
        </mxCell>
        <mxCell id="dDpY92w-f0N6FMBaNKWD-25" value="" style="shape=flexArrow;endArrow=classic;html=1;rounded=0;fillColor=#000000;width=0.3225806451612903;endSize=1.064804469273743;endWidth=2.980717246350694;" edge="1" parent="1" source="dDpY92w-f0N6FMBaNKWD-36" target="dDpY92w-f0N6FMBaNKWD-23">
          <mxGeometry width="50" height="50" relative="1" as="geometry">
            <mxPoint x="1179.5874948352107" y="675.7297689893066" as="sourcePoint" />
            <mxPoint x="1150" y="640" as="targetPoint" />
          </mxGeometry>
        </mxCell>
        <mxCell id="dDpY92w-f0N6FMBaNKWD-26" value="" style="shape=flexArrow;endArrow=classic;html=1;rounded=0;fillColor=#000000;width=0.3225806451612903;endSize=1.064804469273743;endWidth=2.980717246350694;" edge="1" parent="1" source="dDpY92w-f0N6FMBaNKWD-23" target="dDpY92w-f0N6FMBaNKWD-2">
          <mxGeometry width="50" height="50" relative="1" as="geometry">
            <mxPoint x="1192" y="732" as="sourcePoint" />
            <mxPoint x="1175" y="711" as="targetPoint" />
          </mxGeometry>
        </mxCell>
        <mxCell id="dDpY92w-f0N6FMBaNKWD-27" value="" style="shape=flexArrow;endArrow=classic;html=1;rounded=0;fillColor=#000000;width=0.3225806451612903;endSize=1.064804469273743;endWidth=2.980717246350694;" edge="1" parent="1" source="dDpY92w-f0N6FMBaNKWD-34" target="dDpY92w-f0N6FMBaNKWD-24">
          <mxGeometry width="50" height="50" relative="1" as="geometry">
            <mxPoint x="1190" y="680" as="sourcePoint" />
            <mxPoint x="1405.6228969796543" y="552.9683744606523" as="targetPoint" />
          </mxGeometry>
        </mxCell>
        <mxCell id="dDpY92w-f0N6FMBaNKWD-33" value="" style="shape=flexArrow;endArrow=classic;html=1;rounded=0;fillColor=#000000;width=0.3225806451612903;endSize=1.064804469273743;endWidth=2.980717246350694;" edge="1" parent="1" source="dDpY92w-f0N6FMBaNKWD-24" target="dDpY92w-f0N6FMBaNKWD-2">
          <mxGeometry width="50" height="50" relative="1" as="geometry">
            <mxPoint x="1320" y="705" as="sourcePoint" />
            <mxPoint x="1405" y="715" as="targetPoint" />
          </mxGeometry>
        </mxCell>
        <mxCell id="dDpY92w-f0N6FMBaNKWD-34" value="&lt;font style=&quot;font-size: 14px;&quot;&gt;$$H_{software}$$&lt;/font&gt;" style="ellipse;whiteSpace=wrap;html=1;aspect=fixed;fillColor=#CCCCCC;" vertex="1" parent="1">
          <mxGeometry x="1395" y="550" width="80" height="80" as="geometry" />
        </mxCell>
        <mxCell id="dDpY92w-f0N6FMBaNKWD-35" value="" style="shape=flexArrow;endArrow=classic;html=1;rounded=0;fillColor=#000000;width=0.3225806451612903;endSize=1.064804469273743;endWidth=2.980717246350694;" edge="1" parent="1" source="dDpY92w-f0N6FMBaNKWD-34" target="dDpY92w-f0N6FMBaNKWD-2">
          <mxGeometry width="50" height="50" relative="1" as="geometry">
            <mxPoint x="1442" y="573" as="sourcePoint" />
            <mxPoint x="1398" y="587" as="targetPoint" />
          </mxGeometry>
        </mxCell>
        <mxCell id="dDpY92w-f0N6FMBaNKWD-36" value="&lt;font style=&quot;font-size: 14px;&quot;&gt;$$V_{damage}$$&lt;/font&gt;" style="ellipse;whiteSpace=wrap;html=1;aspect=fixed;fillColor=#FFFFFF;strokeColor=#080505;strokeWidth=1;" vertex="1" parent="1">
          <mxGeometry x="1105" y="550" width="80" height="80" as="geometry" />
        </mxCell>
        <mxCell id="dDpY92w-f0N6FMBaNKWD-37" value="&lt;font size=&quot;1&quot;&gt;Eccentric Behavior&amp;nbsp;&lt;/font&gt;" style="ellipse;whiteSpace=wrap;html=1;aspect=fixed;fillColor=#FFFFFF;strokeColor=#F19C99;strokeWidth=2;dashed=1;dashPattern=8 8;" vertex="1" parent="1">
          <mxGeometry x="1390" y="475" width="50" height="50" as="geometry" />
        </mxCell>
        <mxCell id="dDpY92w-f0N6FMBaNKWD-38" value="" style="shape=flexArrow;endArrow=classic;html=1;rounded=0;width=0.3225806451612903;endSize=1.064804469273743;endWidth=2.980717246350694;strokeColor=#F19C99;" edge="1" parent="1" source="dDpY92w-f0N6FMBaNKWD-37" target="dDpY92w-f0N6FMBaNKWD-34">
          <mxGeometry width="50" height="50" relative="1" as="geometry">
            <mxPoint x="1301" y="479" as="sourcePoint" />
            <mxPoint x="1270" y="489" as="targetPoint" />
          </mxGeometry>
        </mxCell>
        <mxCell id="dDpY92w-f0N6FMBaNKWD-39" value="&lt;font size=&quot;1&quot;&gt;Bad Update&lt;/font&gt;" style="ellipse;whiteSpace=wrap;html=1;aspect=fixed;fillColor=#FFFFFF;strokeColor=#F19C99;strokeWidth=2;dashed=1;dashPattern=8 8;" vertex="1" parent="1">
          <mxGeometry x="1475" y="490" width="50" height="50" as="geometry" />
        </mxCell>
        <mxCell id="dDpY92w-f0N6FMBaNKWD-40" value="" style="shape=flexArrow;endArrow=classic;html=1;rounded=0;width=0.3225806451612903;endSize=1.064804469273743;endWidth=2.980717246350694;strokeColor=#F19C99;" edge="1" parent="1" source="dDpY92w-f0N6FMBaNKWD-39" target="dDpY92w-f0N6FMBaNKWD-34">
          <mxGeometry width="50" height="50" relative="1" as="geometry">
            <mxPoint x="1433" y="513" as="sourcePoint" />
            <mxPoint x="1452" y="532" as="targetPoint" />
          </mxGeometry>
        </mxCell>
        <mxCell id="dDpY92w-f0N6FMBaNKWD-41" value="" style="shape=flexArrow;endArrow=classic;html=1;rounded=0;width=0.3225806451612903;endSize=1.064804469273743;endWidth=2.980717246350694;strokeColor=#F19C99;" edge="1" parent="1" source="dDpY92w-f0N6FMBaNKWD-4" target="dDpY92w-f0N6FMBaNKWD-36">
          <mxGeometry width="50" height="50" relative="1" as="geometry">
            <mxPoint x="1080" y="609" as="sourcePoint" />
            <mxPoint x="1115" y="604" as="targetPoint" />
          </mxGeometry>
        </mxCell>
        <mxCell id="dDpY92w-f0N6FMBaNKWD-42" value="&lt;font style=&quot;font-size: 24px;&quot;&gt;$$T$$&lt;/font&gt;" style="ellipse;whiteSpace=wrap;html=1;aspect=fixed;fillColor=#FFFFFF;strokeColor=#080505;strokeWidth=1;" vertex="1" parent="1">
          <mxGeometry x="1075" y="890" width="80" height="80" as="geometry" />
        </mxCell>
        <mxCell id="dDpY92w-f0N6FMBaNKWD-43" value="&lt;font style=&quot;font-size: 10px;&quot;&gt;Delamination&lt;/font&gt;" style="ellipse;whiteSpace=wrap;html=1;aspect=fixed;fillColor=#FFFFFF;strokeColor=#F19C99;strokeWidth=2;dashed=1;dashPattern=8 8;" vertex="1" parent="1">
          <mxGeometry x="1200" y="780" width="50" height="50" as="geometry" />
        </mxCell>
        <mxCell id="dDpY92w-f0N6FMBaNKWD-44" value="" style="shape=flexArrow;endArrow=classic;html=1;rounded=0;width=0.3225806451612903;endSize=1.064804469273743;endWidth=2.980717246350694;strokeColor=#F19C99;" edge="1" parent="1" source="dDpY92w-f0N6FMBaNKWD-43" target="dDpY92w-f0N6FMBaNKWD-23">
          <mxGeometry width="50" height="50" relative="1" as="geometry">
            <mxPoint x="1132" y="681" as="sourcePoint" />
            <mxPoint x="1144" y="639" as="targetPoint" />
          </mxGeometry>
        </mxCell>
        <mxCell id="dDpY92w-f0N6FMBaNKWD-45" value="" style="shape=flexArrow;endArrow=classic;html=1;rounded=0;width=0.3225806451612903;endSize=1.064804469273743;endWidth=2.980717246350694;strokeColor=#F19C99;" edge="1" parent="1" source="dDpY92w-f0N6FMBaNKWD-42" target="dDpY92w-f0N6FMBaNKWD-43">
          <mxGeometry width="50" height="50" relative="1" as="geometry">
            <mxPoint x="1244" y="792" as="sourcePoint" />
            <mxPoint x="1265" y="737" as="targetPoint" />
          </mxGeometry>
        </mxCell>
      </root>
    </mxGraphModel>
  </diagram>
</mxfile>
